Coordinates
version=1
nRows=32
nColumns=12
inDegrees=yes

Units are S.I. units (second, meters, Newtons, ...)
Angles are in degrees

endheader
time	SC_y	SC_z	SC_x	AC_y	AC_z	AC_x	GH_y	GH_z	GH_yy	EL_x	PS_y
       0.0               -39.6          19.74          68.07          53.75          1.257          16.84          138.2          11.28          39.97           57.6          98.63
   0.04351               -39.6          19.73          68.07          53.75          1.257          16.84          138.2          11.28          39.97          57.59          98.63
   0.08702               -39.6          19.73          68.07          53.75          1.257          16.83          138.2          11.28          39.96          57.59          98.62
    0.1305               -39.6          19.73          68.07          53.75          1.256          16.83          138.2          11.28          39.96          57.59          98.61
     0.174               -39.6          19.73          68.08          53.75          1.256          16.82          138.2          11.28          39.96          57.58           98.6
    0.2175               -39.6          19.73          68.08          53.75          1.256          16.82          138.1          11.28          39.96          57.58          98.59
    0.2611               -39.6          19.72          68.08          53.75          1.256          16.82          138.1          11.28          39.95          57.58          98.58
    0.3046               -39.6          19.72          68.08          53.75          1.256          16.81          138.1          11.28          39.95          57.57          98.57
    0.3481               -39.6          19.72          68.08          53.75          1.256          16.81          138.1          11.28          39.95          57.57          98.56
    0.3916              -39.61          19.72          68.08          53.75          1.255           16.8          138.1          11.28          39.94          57.56          98.54
    0.4351              -39.61          19.71          68.09          53.75          1.255          16.79          138.1          11.28          39.94          57.56          98.53
    0.4786              -39.61          19.71          68.09          53.75          1.255          16.79          138.0          11.28          39.93          57.55          98.52
    0.5221              -39.61           19.7          68.09          53.75          1.255          16.78          138.0          11.28          39.93          57.55           98.5
    0.5656              -39.61           19.7           68.1          53.75          1.255          16.77          138.0          11.28          39.92          57.54          98.48
    0.6091              -39.61           19.7           68.1          53.75          1.254          16.77          138.0          11.28          39.92          57.53          98.46
    0.6526              -39.61          19.69           68.1          53.75          1.254          16.76          138.0          11.28          39.91          57.53          98.44
    0.6961              -39.62          19.69          68.11          53.75          1.254          16.75          137.9          11.28          39.91          57.52          98.42
    0.7396              -39.62          19.68          68.11          53.75          1.253          16.74          137.9          11.28           39.9          57.51           98.4
    0.7832              -39.62          19.67          68.11          53.75          1.253          16.73          137.9          11.28          39.89           57.5          98.37
    0.8267              -39.62          19.67          68.12          53.75          1.253          16.71          137.8          11.28          39.88          57.49          98.34
    0.8702              -39.63          19.66          68.12          53.75          1.252           16.7          137.8          11.28          39.87          57.48          98.31
    0.9137              -39.63          19.65          68.13          53.75          1.252          16.69          137.7          11.28          39.86          57.46          98.28
    0.9572              -39.63          19.64          68.14          53.75          1.251          16.67          137.7          11.28          39.85          57.45          98.24
     1.001              -39.64          19.63          68.14          53.75           1.25          16.65          137.6          11.27          39.84          57.43           98.2
     1.044              -39.64          19.62          68.15          53.75           1.25          16.63          137.6          11.27          39.82          57.42          98.15
     1.088              -39.64          19.61          68.16          53.75          1.249          16.61          137.5          11.27          39.81           57.4           98.1
     1.131              -39.65          19.59          68.17          53.75          1.248          16.58          137.4          11.27          39.79          57.37          98.04
     1.175              -39.66          19.58          68.18          53.74          1.247          16.55          137.3          11.27          39.77          57.35          97.97
     1.218              -39.66          19.56          68.19          53.74          1.246          16.52          137.2          11.27          39.75          57.32          97.89
     1.262              -39.67          19.54          68.21          53.74          1.245          16.49          137.1          11.27          39.72          57.29          97.81
     1.305              -39.68          19.52          68.23          53.74          1.243          16.44          137.0          11.27           39.7          57.25          97.71
     1.349              -39.69          19.49          68.24          53.74          1.242           16.4          136.8          11.26          39.66          57.21           97.6
